# xmcd
#
# Track frame offsets:
# 150
# 16680
# 35009
# 52719
# 68221
# 81321
# 99056
# 115226
# 135101
# 157221
# 176845
# 193871
# 211081
# 228224
# 242198
# 259978
#
# Disc length: 3681 seconds
#
#
# Revision: 0
# Processed by: cddbd v1.5.1PL0 Copyright (c) Steve Scherf et al.
# Submitted via: FreeRIP 2.90 
#
DISCID=cf0e5f10
DTITLE=Vários - Forró 40
DYEAR=2005
DGENRE=National Folk
TTITLE0=Nosso Xote
TTITLE1=Que Seja
TTITLE2=Ando Meio Desligado - Ovelha Negra
TTITLE3=Felicidade
TTITLE4=Será?
TTITLE5=Amigo Viajante
TTITLE6=Pode Sim
TTITLE7=Flor-de-lis
TTITLE8=Vem me Ver
TTITLE9=Esperando por Você
TTITLE10=Sempre Estarei Aqui
TTITLE11=Águas Mansas
TTITLE12=Rodopiando
TTITLE13=Sapatilha 37
TTITLE14=Coladinho, Coladinho
TTITLE15=Sabiá
EXTD=
EXTT0=Bicho de Pé
EXTT1=Bicho de Pé
EXTT2=Bicho de Pé
EXTT3=Peixelétrico
EXTT4=Bicho de Pé
EXTT5=Circuladô de Fulô
EXTT6=Circuladô de Fulô
EXTT7=Circuladô de Fulô
EXTT8=Circuladô de Fulô
EXTT9=Circuladô de Fulô
EXTT10=Circuladô de Fulô
EXTT11=Circuladô de Fulô
EXTT12=Forroçacana
EXTT13=Circuladô de Fulô
EXTT14=Trio Virgulino
EXTT15=Alceu, Geraldo Azevedo, Elba e Zé Ramalho
PLAYORDER=
